<mxfile host="app.diagrams.net" modified="2023-12-14T17:44:57.460Z" agent="Mozilla/5.0 (Windows NT 10.0; Win64; x64) AppleWebKit/537.36 (KHTML, like Gecko) Chrome/120.0.0.0 Safari/537.36 Edg/120.0.0.0" etag="YgAVp-cVnbXcbG_iJYWa" version="22.1.9" type="github">
  <diagram id="R2lEEEUBdFMjLlhIrx00" name="Page-1">
    <mxGraphModel dx="1106" dy="613" grid="1" gridSize="10" guides="1" tooltips="1" connect="1" arrows="1" fold="1" page="1" pageScale="1" pageWidth="850" pageHeight="1100" math="0" shadow="0" extFonts="Permanent Marker^https://fonts.googleapis.com/css?family=Permanent+Marker">
      <root>
        <mxCell id="0" />
        <mxCell id="1" parent="0" />
        <mxCell id="C-vyLk0tnHw3VtMMgP7b-12" value="" style="edgeStyle=entityRelationEdgeStyle;endArrow=ERzeroToMany;startArrow=ERone;endFill=1;startFill=0;" parent="1" target="C-vyLk0tnHw3VtMMgP7b-17" edge="1">
          <mxGeometry width="100" height="100" relative="1" as="geometry">
            <mxPoint x="700" y="165" as="sourcePoint" />
            <mxPoint x="460" y="205" as="targetPoint" />
          </mxGeometry>
        </mxCell>
        <mxCell id="46SeBuJy5Llym7Y0hIFG-1" value="SocioClubNau" style="whiteSpace=wrap;html=1;" vertex="1" parent="1">
          <mxGeometry x="130" y="110" width="120" height="60" as="geometry" />
        </mxCell>
        <mxCell id="46SeBuJy5Llym7Y0hIFG-37" value="" style="edgeStyle=orthogonalEdgeStyle;rounded=0;orthogonalLoop=1;jettySize=auto;html=1;" edge="1" parent="1" source="46SeBuJy5Llym7Y0hIFG-2" target="46SeBuJy5Llym7Y0hIFG-1">
          <mxGeometry relative="1" as="geometry" />
        </mxCell>
        <mxCell id="46SeBuJy5Llym7Y0hIFG-38" value="" style="edgeStyle=orthogonalEdgeStyle;rounded=0;orthogonalLoop=1;jettySize=auto;html=1;" edge="1" parent="1" source="46SeBuJy5Llym7Y0hIFG-2" target="46SeBuJy5Llym7Y0hIFG-3">
          <mxGeometry relative="1" as="geometry" />
        </mxCell>
        <mxCell id="46SeBuJy5Llym7Y0hIFG-2" value="DatosPersonales" style="ellipse;whiteSpace=wrap;html=1;" vertex="1" parent="1">
          <mxGeometry x="130" y="210" width="120" height="80" as="geometry" />
        </mxCell>
        <mxCell id="46SeBuJy5Llym7Y0hIFG-3" value="&lt;u&gt;DNI&lt;/u&gt;" style="ellipse;whiteSpace=wrap;html=1;" vertex="1" parent="1">
          <mxGeometry x="130" y="330" width="120" height="80" as="geometry" />
        </mxCell>
        <mxCell id="46SeBuJy5Llym7Y0hIFG-4" value="tiene" style="rhombus;whiteSpace=wrap;html=1;" vertex="1" parent="1">
          <mxGeometry x="330" y="110" width="80" height="80" as="geometry" />
        </mxCell>
        <mxCell id="46SeBuJy5Llym7Y0hIFG-5" value="barco" style="rounded=0;whiteSpace=wrap;html=1;" vertex="1" parent="1">
          <mxGeometry x="500" y="110" width="120" height="60" as="geometry" />
        </mxCell>
        <mxCell id="46SeBuJy5Llym7Y0hIFG-39" value="" style="edgeStyle=orthogonalEdgeStyle;rounded=0;orthogonalLoop=1;jettySize=auto;html=1;" edge="1" parent="1" source="46SeBuJy5Llym7Y0hIFG-6" target="46SeBuJy5Llym7Y0hIFG-5">
          <mxGeometry relative="1" as="geometry" />
        </mxCell>
        <mxCell id="46SeBuJy5Llym7Y0hIFG-40" value="" style="edgeStyle=orthogonalEdgeStyle;rounded=0;orthogonalLoop=1;jettySize=auto;html=1;" edge="1" parent="1" source="46SeBuJy5Llym7Y0hIFG-6" target="46SeBuJy5Llym7Y0hIFG-7">
          <mxGeometry relative="1" as="geometry" />
        </mxCell>
        <mxCell id="46SeBuJy5Llym7Y0hIFG-6" value="&lt;u&gt;Nmatricula&lt;/u&gt;" style="ellipse;whiteSpace=wrap;html=1;" vertex="1" parent="1">
          <mxGeometry x="500" y="210" width="120" height="80" as="geometry" />
        </mxCell>
        <mxCell id="46SeBuJy5Llym7Y0hIFG-41" value="" style="edgeStyle=orthogonalEdgeStyle;rounded=0;orthogonalLoop=1;jettySize=auto;html=1;" edge="1" parent="1" source="46SeBuJy5Llym7Y0hIFG-7" target="46SeBuJy5Llym7Y0hIFG-8">
          <mxGeometry relative="1" as="geometry" />
        </mxCell>
        <mxCell id="46SeBuJy5Llym7Y0hIFG-7" value="nombre" style="ellipse;whiteSpace=wrap;html=1;" vertex="1" parent="1">
          <mxGeometry x="500" y="320" width="120" height="80" as="geometry" />
        </mxCell>
        <mxCell id="46SeBuJy5Llym7Y0hIFG-42" value="" style="edgeStyle=orthogonalEdgeStyle;rounded=0;orthogonalLoop=1;jettySize=auto;html=1;" edge="1" parent="1" source="46SeBuJy5Llym7Y0hIFG-8" target="46SeBuJy5Llym7Y0hIFG-9">
          <mxGeometry relative="1" as="geometry" />
        </mxCell>
        <mxCell id="46SeBuJy5Llym7Y0hIFG-8" value="Namarre" style="ellipse;whiteSpace=wrap;html=1;" vertex="1" parent="1">
          <mxGeometry x="500" y="420" width="120" height="80" as="geometry" />
        </mxCell>
        <mxCell id="46SeBuJy5Llym7Y0hIFG-9" value="CuotaAmarre" style="ellipse;whiteSpace=wrap;html=1;" vertex="1" parent="1">
          <mxGeometry x="500" y="530" width="120" height="80" as="geometry" />
        </mxCell>
        <mxCell id="46SeBuJy5Llym7Y0hIFG-10" value="salidas" style="rhombus;whiteSpace=wrap;html=1;" vertex="1" parent="1">
          <mxGeometry x="700" y="100" width="80" height="80" as="geometry" />
        </mxCell>
        <mxCell id="46SeBuJy5Llym7Y0hIFG-11" value="PatrÃ³n" style="rounded=0;whiteSpace=wrap;html=1;" vertex="1" parent="1">
          <mxGeometry x="840" y="110" width="120" height="60" as="geometry" />
        </mxCell>
        <mxCell id="46SeBuJy5Llym7Y0hIFG-44" value="" style="edgeStyle=orthogonalEdgeStyle;rounded=0;orthogonalLoop=1;jettySize=auto;html=1;" edge="1" parent="1" source="46SeBuJy5Llym7Y0hIFG-12" target="46SeBuJy5Llym7Y0hIFG-13">
          <mxGeometry relative="1" as="geometry" />
        </mxCell>
        <mxCell id="46SeBuJy5Llym7Y0hIFG-12" value="fecha" style="ellipse;whiteSpace=wrap;html=1;" vertex="1" parent="1">
          <mxGeometry x="690" y="210" width="120" height="80" as="geometry" />
        </mxCell>
        <mxCell id="46SeBuJy5Llym7Y0hIFG-43" value="" style="edgeStyle=orthogonalEdgeStyle;rounded=0;orthogonalLoop=1;jettySize=auto;html=1;" edge="1" parent="1" source="46SeBuJy5Llym7Y0hIFG-13" target="46SeBuJy5Llym7Y0hIFG-14">
          <mxGeometry relative="1" as="geometry" />
        </mxCell>
        <mxCell id="46SeBuJy5Llym7Y0hIFG-13" value="horaSalida" style="ellipse;whiteSpace=wrap;html=1;" vertex="1" parent="1">
          <mxGeometry x="690" y="310" width="120" height="80" as="geometry" />
        </mxCell>
        <mxCell id="46SeBuJy5Llym7Y0hIFG-14" value="destino" style="ellipse;whiteSpace=wrap;html=1;" vertex="1" parent="1">
          <mxGeometry x="690" y="420" width="120" height="80" as="geometry" />
        </mxCell>
        <mxCell id="46SeBuJy5Llym7Y0hIFG-45" value="" style="edgeStyle=orthogonalEdgeStyle;rounded=0;orthogonalLoop=1;jettySize=auto;html=1;" edge="1" parent="1" source="46SeBuJy5Llym7Y0hIFG-15" target="46SeBuJy5Llym7Y0hIFG-16">
          <mxGeometry relative="1" as="geometry" />
        </mxCell>
        <mxCell id="46SeBuJy5Llym7Y0hIFG-46" value="" style="edgeStyle=orthogonalEdgeStyle;rounded=0;orthogonalLoop=1;jettySize=auto;html=1;" edge="1" parent="1" source="46SeBuJy5Llym7Y0hIFG-15" target="46SeBuJy5Llym7Y0hIFG-11">
          <mxGeometry relative="1" as="geometry" />
        </mxCell>
        <mxCell id="46SeBuJy5Llym7Y0hIFG-15" value="&lt;u&gt;dni&lt;/u&gt;" style="ellipse;whiteSpace=wrap;html=1;" vertex="1" parent="1">
          <mxGeometry x="860" y="210" width="120" height="80" as="geometry" />
        </mxCell>
        <mxCell id="46SeBuJy5Llym7Y0hIFG-16" value="nombreETC" style="ellipse;whiteSpace=wrap;html=1;" vertex="1" parent="1">
          <mxGeometry x="860" y="310" width="120" height="80" as="geometry" />
        </mxCell>
        <mxCell id="46SeBuJy5Llym7Y0hIFG-17" value="1" style="text;html=1;align=center;verticalAlign=middle;resizable=0;points=[];autosize=1;strokeColor=none;fillColor=none;" vertex="1" parent="1">
          <mxGeometry x="255" y="98" width="30" height="30" as="geometry" />
        </mxCell>
        <mxCell id="46SeBuJy5Llym7Y0hIFG-18" value="n" style="text;html=1;align=center;verticalAlign=middle;resizable=0;points=[];autosize=1;strokeColor=none;fillColor=none;" vertex="1" parent="1">
          <mxGeometry x="475" y="98" width="30" height="30" as="geometry" />
        </mxCell>
        <mxCell id="46SeBuJy5Llym7Y0hIFG-19" value="1" style="text;html=1;align=center;verticalAlign=middle;resizable=0;points=[];autosize=1;strokeColor=none;fillColor=none;" vertex="1" parent="1">
          <mxGeometry x="465" y="148" width="30" height="30" as="geometry" />
        </mxCell>
        <mxCell id="46SeBuJy5Llym7Y0hIFG-20" value="n" style="text;html=1;align=center;verticalAlign=middle;resizable=0;points=[];autosize=1;strokeColor=none;fillColor=none;" vertex="1" parent="1">
          <mxGeometry x="255" y="148" width="30" height="30" as="geometry" />
        </mxCell>
        <mxCell id="46SeBuJy5Llym7Y0hIFG-21" value="(n,m)" style="text;html=1;align=center;verticalAlign=middle;resizable=0;points=[];autosize=1;strokeColor=none;fillColor=none;" vertex="1" parent="1">
          <mxGeometry x="345" y="78" width="50" height="30" as="geometry" />
        </mxCell>
        <mxCell id="46SeBuJy5Llym7Y0hIFG-22" value="(1,1)" style="text;html=1;align=center;verticalAlign=middle;resizable=0;points=[];autosize=1;strokeColor=none;fillColor=none;" vertex="1" parent="1">
          <mxGeometry x="345" y="188" width="50" height="30" as="geometry" />
        </mxCell>
        <mxCell id="46SeBuJy5Llym7Y0hIFG-23" value="1" style="text;html=1;align=center;verticalAlign=middle;resizable=0;points=[];autosize=1;strokeColor=none;fillColor=none;" vertex="1" parent="1">
          <mxGeometry x="625" y="98" width="30" height="30" as="geometry" />
        </mxCell>
        <mxCell id="46SeBuJy5Llym7Y0hIFG-24" value="n" style="text;html=1;align=center;verticalAlign=middle;resizable=0;points=[];autosize=1;strokeColor=none;fillColor=none;" vertex="1" parent="1">
          <mxGeometry x="805" y="98" width="30" height="30" as="geometry" />
        </mxCell>
        <mxCell id="46SeBuJy5Llym7Y0hIFG-25" value="1" style="text;html=1;align=center;verticalAlign=middle;resizable=0;points=[];autosize=1;strokeColor=none;fillColor=none;" vertex="1" parent="1">
          <mxGeometry x="815" y="148" width="30" height="30" as="geometry" />
        </mxCell>
        <mxCell id="46SeBuJy5Llym7Y0hIFG-26" value="n" style="text;html=1;align=center;verticalAlign=middle;resizable=0;points=[];autosize=1;strokeColor=none;fillColor=none;" vertex="1" parent="1">
          <mxGeometry x="625" y="148" width="30" height="30" as="geometry" />
        </mxCell>
        <mxCell id="46SeBuJy5Llym7Y0hIFG-27" value="(n,m)" style="text;html=1;align=center;verticalAlign=middle;resizable=0;points=[];autosize=1;strokeColor=none;fillColor=none;" vertex="1" parent="1">
          <mxGeometry x="715" y="78" width="50" height="30" as="geometry" />
        </mxCell>
        <mxCell id="46SeBuJy5Llym7Y0hIFG-28" value="(1,1)" style="text;html=1;align=center;verticalAlign=middle;resizable=0;points=[];autosize=1;strokeColor=none;fillColor=none;" vertex="1" parent="1">
          <mxGeometry x="715" y="178" width="50" height="30" as="geometry" />
        </mxCell>
        <mxCell id="46SeBuJy5Llym7Y0hIFG-30" value="" style="endArrow=none;html=1;rounded=0;edgeStyle=orthogonalEdgeStyle;exitX=1;exitY=0.5;exitDx=0;exitDy=0;entryX=0;entryY=0.5;entryDx=0;entryDy=0;" edge="1" parent="1" source="46SeBuJy5Llym7Y0hIFG-1" target="46SeBuJy5Llym7Y0hIFG-4">
          <mxGeometry relative="1" as="geometry">
            <mxPoint x="340" y="380" as="sourcePoint" />
            <mxPoint x="500" y="380" as="targetPoint" />
          </mxGeometry>
        </mxCell>
        <mxCell id="46SeBuJy5Llym7Y0hIFG-31" value="" style="endArrow=none;html=1;rounded=0;edgeStyle=orthogonalEdgeStyle;exitX=1;exitY=0.5;exitDx=0;exitDy=0;entryX=0;entryY=0.5;entryDx=0;entryDy=0;" edge="1" parent="1" source="46SeBuJy5Llym7Y0hIFG-4" target="46SeBuJy5Llym7Y0hIFG-5">
          <mxGeometry relative="1" as="geometry">
            <mxPoint x="320" y="290" as="sourcePoint" />
            <mxPoint x="480" y="290" as="targetPoint" />
          </mxGeometry>
        </mxCell>
        <mxCell id="46SeBuJy5Llym7Y0hIFG-32" value="" style="endArrow=none;html=1;rounded=0;edgeStyle=orthogonalEdgeStyle;exitX=1;exitY=0.5;exitDx=0;exitDy=0;entryX=0;entryY=0.5;entryDx=0;entryDy=0;" edge="1" parent="1" source="46SeBuJy5Llym7Y0hIFG-5" target="46SeBuJy5Llym7Y0hIFG-10">
          <mxGeometry relative="1" as="geometry">
            <mxPoint x="340" y="380" as="sourcePoint" />
            <mxPoint x="500" y="380" as="targetPoint" />
          </mxGeometry>
        </mxCell>
        <mxCell id="46SeBuJy5Llym7Y0hIFG-34" value="" style="endArrow=none;html=1;rounded=0;edgeStyle=orthogonalEdgeStyle;exitX=1;exitY=0.5;exitDx=0;exitDy=0;entryX=0.8;entryY=-0.133;entryDx=0;entryDy=0;entryPerimeter=0;" edge="1" parent="1" source="46SeBuJy5Llym7Y0hIFG-10" target="46SeBuJy5Llym7Y0hIFG-25">
          <mxGeometry relative="1" as="geometry">
            <mxPoint x="340" y="380" as="sourcePoint" />
            <mxPoint x="500" y="380" as="targetPoint" />
          </mxGeometry>
        </mxCell>
        <mxCell id="46SeBuJy5Llym7Y0hIFG-47" value="clubNautico" style="text;html=1;align=center;verticalAlign=middle;resizable=0;points=[];autosize=1;strokeColor=none;fillColor=none;" vertex="1" parent="1">
          <mxGeometry x="185" y="28" width="90" height="30" as="geometry" />
        </mxCell>
        <mxCell id="46SeBuJy5Llym7Y0hIFG-48" value="CorreciÃ³n" style="text;html=1;align=center;verticalAlign=middle;resizable=0;points=[];autosize=1;strokeColor=none;fillColor=none;" vertex="1" parent="1">
          <mxGeometry x="80" y="628" width="80" height="30" as="geometry" />
        </mxCell>
        <mxCell id="46SeBuJy5Llym7Y0hIFG-49" value="PERSONAS" style="whiteSpace=wrap;html=1;align=center;" vertex="1" parent="1">
          <mxGeometry x="450" y="770" width="100" height="40" as="geometry" />
        </mxCell>
        <mxCell id="46SeBuJy5Llym7Y0hIFG-50" value="dni" style="ellipse;whiteSpace=wrap;html=1;align=center;" vertex="1" parent="1">
          <mxGeometry x="310" y="670" width="100" height="40" as="geometry" />
        </mxCell>
        <mxCell id="46SeBuJy5Llym7Y0hIFG-51" value="NOMBREp" style="ellipse;whiteSpace=wrap;html=1;align=center;" vertex="1" parent="1">
          <mxGeometry x="460" y="670" width="100" height="40" as="geometry" />
        </mxCell>
        <mxCell id="46SeBuJy5Llym7Y0hIFG-52" value="DIRECCION" style="ellipse;whiteSpace=wrap;html=1;align=center;" vertex="1" parent="1">
          <mxGeometry x="620" y="670" width="100" height="40" as="geometry" />
        </mxCell>
        <mxCell id="46SeBuJy5Llym7Y0hIFG-53" value="" style="endArrow=none;html=1;rounded=0;edgeStyle=orthogonalEdgeStyle;exitX=0.5;exitY=1;exitDx=0;exitDy=0;entryX=0;entryY=0.25;entryDx=0;entryDy=0;" edge="1" parent="1" source="46SeBuJy5Llym7Y0hIFG-50" target="46SeBuJy5Llym7Y0hIFG-49">
          <mxGeometry relative="1" as="geometry">
            <mxPoint x="410" y="770" as="sourcePoint" />
            <mxPoint x="570" y="770" as="targetPoint" />
          </mxGeometry>
        </mxCell>
        <mxCell id="46SeBuJy5Llym7Y0hIFG-54" value="" style="endArrow=none;html=1;rounded=0;edgeStyle=orthogonalEdgeStyle;exitX=0.42;exitY=1.05;exitDx=0;exitDy=0;exitPerimeter=0;entryX=0.5;entryY=0;entryDx=0;entryDy=0;" edge="1" parent="1" source="46SeBuJy5Llym7Y0hIFG-51" target="46SeBuJy5Llym7Y0hIFG-49">
          <mxGeometry relative="1" as="geometry">
            <mxPoint x="410" y="770" as="sourcePoint" />
            <mxPoint x="500" y="760" as="targetPoint" />
          </mxGeometry>
        </mxCell>
        <mxCell id="46SeBuJy5Llym7Y0hIFG-55" value="" style="endArrow=none;html=1;rounded=0;edgeStyle=orthogonalEdgeStyle;entryX=0.5;entryY=1;entryDx=0;entryDy=0;exitX=1;exitY=0.5;exitDx=0;exitDy=0;" edge="1" parent="1" source="46SeBuJy5Llym7Y0hIFG-49" target="46SeBuJy5Llym7Y0hIFG-52">
          <mxGeometry relative="1" as="geometry">
            <mxPoint x="410" y="770" as="sourcePoint" />
            <mxPoint x="570" y="770" as="targetPoint" />
          </mxGeometry>
        </mxCell>
        <mxCell id="46SeBuJy5Llym7Y0hIFG-56" value="" style="triangle;whiteSpace=wrap;html=1;direction=south;" vertex="1" parent="1">
          <mxGeometry x="460" y="820" width="80" height="60" as="geometry" />
        </mxCell>
        <mxCell id="46SeBuJy5Llym7Y0hIFG-57" value="Socios" style="rounded=0;whiteSpace=wrap;html=1;" vertex="1" parent="1">
          <mxGeometry x="210" y="880" width="120" height="60" as="geometry" />
        </mxCell>
        <mxCell id="46SeBuJy5Llym7Y0hIFG-58" value="PAtrones" style="rounded=0;whiteSpace=wrap;html=1;" vertex="1" parent="1">
          <mxGeometry x="645" y="880" width="120" height="60" as="geometry" />
        </mxCell>
      </root>
    </mxGraphModel>
  </diagram>
</mxfile>
